<?xml version="1.0" encoding="UTF-8"?>
<svg version="1.1" xmlns="http://www.w3.org/2000/svg" width="800" height="800">
<path d="M0 0 C4.96696175 1.86261066 6.96967747 4.75176668 9.5 9.3125 C16.37950683 24.97207781 14.74234234 44.6606918 9.3984375 60.59765625 C8.20922141 63.57069647 6.90928065 66.43772808 5.5 69.3125 C5.05785156 70.23546875 4.61570312 71.1584375 4.16015625 72.109375 C-7.1021244 94.19717196 -27.80993261 110.23540297 -49.04199219 122.0534668 C-52.34994427 123.91448227 -54.36040825 125.10311238 -56.5 128.3125 C-5.98303211 128.90371406 52.31273387 123.0457603 91.5 87.3125 C92.61375 86.32056641 92.61375 86.32056641 93.75 85.30859375 C99.3609507 80.02828836 103.86321701 74.04952189 108.33959961 67.80834961 C113.09404312 61.23792316 113.09404312 61.23792316 116.5 59.3125 C119.65058406 59.17551808 121.55406161 59.58431475 124.078125 61.52734375 C133.78860094 71.55659794 133.97554516 87.11564716 133.78125 100.25 C133.20491287 115.37308626 127.47464022 130.03169807 120.515625 143.2890625 C119.38289496 145.42556699 119.38289496 145.42556699 118.5 148.3125 C119.19351563 148.54324219 119.88703125 148.77398437 120.6015625 149.01171875 C124.10515926 150.58408764 126.90828184 152.73211921 129.875 155.125 C130.48802979 155.61581055 131.10105957 156.10662109 131.73266602 156.61230469 C133.66343573 158.1690998 135.58296749 159.73883128 137.5 161.3125 C138.07508301 161.78026855 138.65016602 162.24803711 139.24267578 162.72998047 C148.08993004 169.97511625 156.2729826 177.88013031 164.375 185.9375 C164.86136932 186.41860229 165.34773865 186.89970459 165.84884644 187.39538574 C172.52932343 194.01980733 178.65420891 200.93927423 184.5 208.3125 C185.53668455 209.57877345 186.57545257 210.84334686 187.6171875 212.10546875 C210.59456479 240.26250587 228.55287695 272.39515488 241.5 306.3125 C241.86077637 307.25609375 242.22155273 308.1996875 242.59326172 309.171875 C270.09256255 382.60477053 270.07601797 478.83131093 241.5 552.3125 C240.51 552.3125 239.52 552.3125 238.5 552.3125 C238.23783691 551.46018799 237.97567383 550.60787598 237.70556641 549.72973633 C236.72692677 546.5516463 235.74641447 543.37414647 234.76464844 540.19702148 C234.34105068 538.82485578 233.91818894 537.45246264 233.49609375 536.07983398 C232.88737762 534.10078872 232.27597229 532.12259105 231.6640625 530.14453125 C231.29748535 528.95577393 230.9309082 527.7670166 230.55322266 526.54223633 C229.63630334 523.73047795 228.74368981 520.99591262 227.5 518.3125 C226.84 517.9825 226.18 517.6525 225.5 517.3125 C225.11972656 518.54097656 224.73945312 519.76945313 224.34765625 521.03515625 C222.30893831 527.13701163 219.64558355 532.92083728 216.9375 538.75 C216.40737305 539.89291504 215.87724609 541.03583008 215.33105469 542.21337891 C208.74565815 556.24921958 201.42255764 569.61697513 192.5 582.3125 C191.72248103 583.44128558 190.94514523 584.57019734 190.16796875 585.69921875 C182.45906216 596.79390779 173.774266 606.92433537 164.68359375 616.90625 C163.18259521 618.56030206 161.69634091 620.2278167 160.22265625 621.90625 C156.26836661 626.39453773 152.28228365 630.56464967 147.70703125 634.41796875 C145.54227161 636.27621375 143.45799244 638.20615712 141.37768555 640.15795898 C134.41762046 646.66344305 127.10012476 652.57429969 119.5 658.3125 C118.84854004 658.80975586 118.19708008 659.30701172 117.52587891 659.81933594 C58.24436335 704.85226292 -11.12348209 724.5113265 -84.75 724.5625 C-85.64008759 724.56317474 -86.53017517 724.56384949 -87.44723511 724.56454468 C-101.66117273 724.54754483 -115.49030383 723.88873584 -129.5 721.3125 C-130.4600293 721.14089355 -131.42005859 720.96928711 -132.40917969 720.79248047 C-157.34296016 716.2349992 -181.07037825 708.92890031 -204.5 699.3125 C-205.33080078 698.97637695 -206.16160156 698.64025391 -207.01757812 698.29394531 C-220.48046589 692.80295347 -232.99589007 685.69721528 -245.5 678.3125 C-246.26650879 677.86084473 -247.03301758 677.40918945 -247.82275391 676.94384766 C-258.24537379 670.75131875 -267.93796205 663.75470275 -277.5 656.3125 C-278.44875 655.57902344 -279.3975 654.84554687 -280.375 654.08984375 C-285.48342783 650.07493875 -290.34302676 645.83354079 -295.140625 641.453125 C-297.1886696 639.59496533 -299.2695697 637.79222579 -301.375 636 C-309.67439722 628.76117484 -317.47255821 620.7875948 -324.5 612.3125 C-324.94923828 611.77705566 -325.39847656 611.24161133 -325.86132812 610.68994141 C-337.57513362 596.69845151 -348.31085968 582.09897183 -357.5 566.3125 C-357.87302246 565.67328613 -358.24604492 565.03407227 -358.63037109 564.37548828 C-367.23000171 549.54332374 -374.87243015 534.12680032 -381.5 518.3125 C-383.26798475 520.96447712 -384.14160864 522.8744865 -385.12109375 525.84765625 C-385.56485352 527.18666992 -385.56485352 527.18666992 -386.01757812 528.55273438 C-386.32115234 529.48408203 -386.62472656 530.41542969 -386.9375 531.375 C-387.23720703 532.27927734 -387.53691406 533.18355469 -387.84570312 534.11523438 C-389.8345872 540.1509151 -391.70465886 546.21659455 -393.5 552.3125 C-394.16 552.3125 -394.82 552.3125 -395.5 552.3125 C-403.69757428 535.77226164 -406.5571355 516.97016308 -409.6875 498.9375 C-409.80801727 498.25283661 -409.92853455 497.56817322 -410.05270386 496.86276245 C-410.95469916 491.69122457 -411.75303703 486.50858773 -412.5 481.3125 C-412.70175842 479.93069046 -412.70175842 479.93069046 -412.90759277 478.52096558 C-415.3337555 461.4347163 -415.9770692 444.4992262 -415.89111328 427.27075195 C-415.8739712 423.80876635 -415.88424546 420.34747017 -415.90142059 416.88550758 C-415.97053716 400.49931257 -415.26025418 384.49561269 -412.5 368.3125 C-412.36833435 367.52541656 -412.2366687 366.73833313 -412.10101318 365.92739868 C-411.24188151 360.869746 -410.27671593 355.83857884 -409.25 350.8125 C-409.02506866 349.70027573 -409.02506866 349.70027573 -408.79559326 348.56558228 C-396.90558013 290.16280329 -367.09684815 235.58676149 -326.828125 191.859375 C-324.88199408 189.73038614 -322.99426568 187.57093347 -321.125 185.375 C-313.90066647 177.0747019 -305.90890557 169.39848553 -297.5 162.3125 C-296.57058594 161.50554687 -295.64117187 160.69859375 -294.68359375 159.8671875 C-246.90193073 118.53154128 -192.56045112 95.62942314 -132.375 78.3125 C-95.17652792 67.6060985 -59.0464529 56.26581471 -29.5 30.3125 C-28.63761719 29.56484375 -27.77523438 28.8171875 -26.88671875 28.046875 C-21.47234022 23.00755999 -17.4532287 17.18099229 -13.47924805 10.9831543 C-10.05999998 5.7399657 -6.64744099 0.59352152 0 0 Z M-224.5 234.3125 C-225.93726097 234.71829547 -227.37476736 235.12322257 -228.8125 235.52734375 C-253.05487571 242.68329027 -275.60625678 255.59558392 -294.5 272.3125 C-295.27851318 273.00061768 -295.27851318 273.00061768 -296.07275391 273.70263672 C-333.46234454 306.94878987 -356.00534001 353.77005724 -359.359375 403.72802734 C-360.05667408 416.54331906 -359.56654788 429.27162657 -358.625 442.0625 C-358.54668945 443.13322754 -358.46837891 444.20395508 -358.38769531 445.30712891 C-357.85963182 451.76022659 -356.93047658 457.99734082 -355.5 464.3125 C-354.51 464.6425 -353.52 464.9725 -352.5 465.3125 C-352.24476563 464.48395508 -352.24476563 464.48395508 -351.984375 463.63867188 C-348.13084257 451.26842284 -343.84059548 439.62559567 -337.5 428.3125 C-336.96221924 427.35005371 -336.96221924 427.35005371 -336.41357422 426.36816406 C-327.22983723 410.12719392 -315.72394125 395.12554222 -302.3203125 382.12890625 C-300.4891332 380.30165652 -298.80561119 378.40342425 -297.125 376.4375 C-291.05817869 369.40330399 -284.40586289 362.97052787 -277.34375 356.9453125 C-275.56605046 355.37099384 -273.94619849 353.72179007 -272.3125 352 C-255.81324699 335.3890139 -233.51448658 324.14755212 -209.875 324.0625 C-193.13881524 324.08621044 -178.75397513 329.71978491 -166.5 341.3125 C-153.91833464 354.60174584 -150.87191027 369.02623326 -151.25 386.7421875 C-151.47576209 392.26658576 -152.4481283 397.17025827 -154.5 402.3125 C-154.80550781 403.12460937 -155.11101562 403.93671875 -155.42578125 404.7734375 C-158.82315603 412.60593063 -164.56586683 418.35360689 -170.5 424.3125 C-171.21027344 425.05757812 -171.92054688 425.80265625 -172.65234375 426.5703125 C-176.87916738 430.70789417 -181.47925374 433.54162734 -186.7578125 436.15234375 C-187.45715408 436.4997612 -188.15649567 436.84717865 -188.87702942 437.2051239 C-195.76429936 440.5554113 -202.84525643 443.23683157 -210.03973389 445.84289551 C-234.60580771 454.78857939 -255.05884739 465.73144505 -274.03076172 483.91064453 C-275.34182031 485.16157481 -276.67165306 486.39276047 -278.00390625 487.62109375 C-292.8873459 501.72800612 -302.33967775 520.743151 -303.5 541.3125 C-303.55285156 542.22128906 -303.60570312 543.13007812 -303.66015625 544.06640625 C-303.94311449 553.10876731 -301.09808317 558.98251202 -295.875 566.125 C-295.43696045 566.73102051 -294.9989209 567.33704102 -294.54760742 567.96142578 C-290.54686277 573.41050482 -286.10879746 578.37200879 -281.5 583.3125 C-280.43318883 584.55882266 -279.37053997 585.80872264 -278.3125 587.0625 C-269.57830433 597.05312289 -259.99207265 606.19487095 -249.5 614.3125 C-248.49582031 615.11042969 -247.49164063 615.90835937 -246.45703125 616.73046875 C-232.98792258 627.36812121 -218.71267432 636.37726428 -203.5 644.3125 C-202.20860107 644.98780762 -202.20860107 644.98780762 -200.89111328 645.67675781 C-163.30709973 665.07715113 -121.36175721 674.56065777 -79.1875 674.5 C-78.3461853 674.49906342 -77.50487061 674.49812683 -76.63806152 674.49716187 C-8.41430334 674.33287452 55.554079 650.63090411 106.08984375 604.5 C108.42581254 602.37983383 110.80326875 600.3155269 113.1875 598.25 C116.64595134 595.17918594 119.71689446 591.95657897 122.69921875 588.42578125 C124.67933129 586.10204831 126.74254634 583.86896028 128.8125 581.625 C139.27985848 570.01053375 148.64180724 559.58488042 148.5 543.3125 C146.91800504 516.92708403 133.88141854 496.60051117 114.5 479.3125 C104.27697811 470.61057729 93.45923584 463.38320792 81.5 457.3125 C80.86223633 456.98475586 80.22447266 456.65701172 79.56738281 456.31933594 C70.40849943 451.66360875 60.98726073 447.92600817 51.375 444.3125 C28.66334181 435.70940197 11.17221235 425.50782853 0.87109375 402.70703125 C-5.45724756 386.750957 -5.03494266 372.19770414 1.71484375 356.484375 C7.94198211 343.84960151 18.26232996 333.43434739 31.5 328.3125 C39.8631126 325.58883973 47.74318047 324.84389979 56.5 324.9375 C57.58539062 324.92589844 58.67078125 324.91429687 59.7890625 324.90234375 C84.39110083 324.99041787 102.50014206 339.16698847 120.5 354.3125 C121.21414063 354.8796875 121.92828125 355.446875 122.6640625 356.03125 C127.27905016 359.75362688 127.27905016 359.75362688 128.5625 363 C129.31633963 365.59864986 129.31633963 365.59864986 132.2265625 366.64453125 C140.73836986 370.98169323 147.40436391 380.15138566 153.265625 387.51953125 C155.55473871 390.38092339 157.92850025 393.15490157 160.3125 395.9375 C172.93372888 411.10649248 183.48933713 427.38907424 190.9375 445.6875 C191.26782227 446.49550049 191.59814453 447.30350098 191.93847656 448.13598633 C194.13886462 453.76886456 195.49376205 459.35374607 196.5 465.3125 C197.82 465.3125 199.14 465.3125 200.5 465.3125 C211.2966202 411.05778589 202.92197663 355.29437317 172.34936523 308.72900391 C166.68063449 300.41513899 160.30989747 292.71127996 153.5 285.3125 C152.99774902 284.7649707 152.49549805 284.21744141 151.97802734 283.65332031 C139.40398599 270.11945913 124.69460195 259.15090988 108.5 250.3125 C107.87303223 249.96880371 107.24606445 249.62510742 106.60009766 249.27099609 C73.7947886 231.53232226 33.13541505 223.75207398 -3.5 233.3125 C-4.66813232 233.61051514 -4.66813232 233.61051514 -5.85986328 233.91455078 C-29.93246657 240.22209256 -51.02671777 250.08289006 -69.609375 266.74609375 C-71.84752882 268.7332114 -74.07018857 270.57270784 -76.5 272.3125 C-77.26441406 271.63445312 -78.02882813 270.95640625 -78.81640625 270.2578125 C-105.39791887 247.00425471 -140.11383179 230.44617091 -175.92578125 230.07421875 C-177.09741066 230.05952797 -177.09741066 230.05952797 -178.29270935 230.04454041 C-201.68560239 229.71772249 -201.68560239 229.71772249 -224.5 234.3125 Z M42.5 370.3125 C40.00857732 375.29534537 40.91953976 382.57111928 42.625 387.6875 C46.42069759 393.00147663 49.84978473 396.98245695 56.5 398.3125 C62.37600539 398.7863714 67.31660132 398.29822643 72.5 395.3125 C76.45765371 391.73558259 79.244562 387.61144202 79.8359375 382.2890625 C80.03704239 373.53989472 80.03704239 373.53989472 75.5 366.3125 C70.2707023 361.49604159 65.06626323 358.58517692 57.875 358.828125 C51.41857834 360.14489521 46.07464451 364.95053323 42.5 370.3125 Z M-230.09375 365.90234375 C-233.95583111 370.97668921 -234.18417281 376.08969853 -233.91796875 382.3203125 C-233.16285059 387.7261117 -230.45481075 390.56243762 -226.5625 394.0625 C-221.78006769 397.57612374 -217.89226322 398.90229339 -211.9765625 398.75390625 C-206.52941908 397.78304315 -201.75128378 394.74744114 -198.015625 390.70703125 C-194.99656028 386.10186368 -194.27279223 380.7392701 -194.5 375.3125 C-196.3183725 369.47456722 -199.01698359 365.15884553 -203.9375 361.5 C-213.00877224 358.47624259 -223.1188632 358.94455226 -230.09375 365.90234375 Z " fill="#000000" transform="translate(479.5,36.6875)"/>
<path d="M0 0 C3.85418759 2.37192974 5.92490182 5.43457866 8.30859375 9.203125 C18.19837277 23.82206107 32.92186717 28.96732652 49.43359375 33.390625 C50.16707031 33.59107422 50.90054688 33.79152344 51.65625 33.99804688 C73.27872947 39.65401277 99.75506997 40.13450737 121.43359375 34.390625 C122.45646484 34.14119141 122.45646484 34.14119141 123.5 33.88671875 C139.28815059 30.01847859 156.10809404 24.1561935 164.99609375 9.828125 C165.5684375 8.88066406 166.14078125 7.93320312 166.73046875 6.95703125 C169.30432533 3.07853636 172.24381602 0.48551386 176.43359375 -1.609375 C183.36233707 -2.35554736 189.06541469 -2.31514221 194.8125 1.890625 C198.56521324 5.36301508 201.08883815 9.36129708 201.671875 14.484375 C201.9582511 23.76898974 199.1542775 32.03546018 193.43359375 39.390625 C192.78197266 40.27427734 192.78197266 40.27427734 192.1171875 41.17578125 C172.11058021 66.39714332 134.03679831 76.07231484 103.76953125 79.84765625 C100.65130191 80.13781407 97.56366999 80.29765244 94.43359375 80.390625 C93.20640625 80.4421875 91.97921875 80.49375 90.71484375 80.546875 C53.35267736 81.64162054 13.8531704 70.01762844 -14.33984375 44.921875 C-21.3478017 38.26328738 -27.00633852 31.33179228 -27.8046875 21.4375 C-27.95776731 14.63753377 -28.0674554 8.81234329 -23.56640625 3.390625 C-17.07240531 -2.9784913 -8.11463859 -3.66180843 0 0 Z " fill="#000000" transform="translate(315.56640625,530.609375)"/>
<path d="M0 0 C1.01172775 -0.00960754 2.02345551 -0.01921509 3.06584167 -0.02911377 C4.15439957 -0.03336365 5.24295746 -0.03761353 6.36450195 -0.04199219 C8.05528618 -0.0505423 8.05528618 -0.0505423 9.78022766 -0.05926514 C12.16662662 -0.06870997 14.55303859 -0.07524707 16.93945312 -0.07910156 C20.57160538 -0.08878407 24.20318614 -0.11980371 27.83520508 -0.15136719 C30.15746736 -0.15789994 32.47973367 -0.16314934 34.80200195 -0.16699219 C35.88043869 -0.17933899 36.95887543 -0.19168579 38.06999207 -0.20440674 C46.74948707 -0.17905558 54.76241145 1.00648525 61.27856445 7.18847656 C68.15389451 15.47497221 70.39270327 24.555587 69.9152832 35.16113281 C68.29644821 50.02081633 62.91222696 61.94838239 51.9152832 72.16113281 C42.44296901 79.75207199 31.1590432 84.65088321 18.9152832 84.16113281 C3.74631045 81.34593045 -7.95110264 75.45816352 -17.61206055 63.22753906 C-25.84694846 51.18808288 -27.22102907 36.30790327 -26.0847168 22.16113281 C-24.60633088 14.45749536 -21.34322033 8.91270816 -15.0847168 4.16113281 C-10.01611022 1.17959953 -5.82974205 0.04483883 0 0 Z " fill="#000000" transform="translate(381.084716796875,448.8388671875)"/>
</svg>
